<?xml version="1.0" encoding="UTF-8" standalone="no"?>
<!-- Generated by graphviz version 2.26.3 (20100126.1600)
 -->

<!-- Title: graphname Pages: 1 -->

<svg
   xmlns:dc="http://purl.org/dc/elements/1.1/"
   xmlns:cc="http://creativecommons.org/ns#"
   xmlns:rdf="http://www.w3.org/1999/02/22-rdf-syntax-ns#"
   xmlns:svg="http://www.w3.org/2000/svg"
   xmlns="http://www.w3.org/2000/svg"
   xmlns:sodipodi="http://sodipodi.sourceforge.net/DTD/sodipodi-0.dtd"
   xmlns:inkscape="http://www.inkscape.org/namespaces/inkscape"
   width="864pt"
   height="260pt"
   viewBox="0.00 0.00 864.00 260.00"
   id="svg2"
   version="1.1"
   inkscape:version="0.48.4 r9939"
   sodipodi:docname="b.svg">
  <metadata
     id="metadata111">
    <rdf:RDF>
      <cc:Work
         rdf:about="">
        <dc:format>image/svg+xml</dc:format>
        <dc:type
           rdf:resource="http://purl.org/dc/dcmitype/StillImage" />
        <dc:title></dc:title>
      </cc:Work>
    </rdf:RDF>
  </metadata>
  <defs
     id="defs109" />
  <sodipodi:namedview
     pagecolor="#ffffff"
     bordercolor="#666666"
     borderopacity="1"
     objecttolerance="10"
     gridtolerance="10"
     guidetolerance="10"
     inkscape:pageopacity="0"
     inkscape:pageshadow="2"
     inkscape:window-width="1680"
     inkscape:window-height="1029"
     id="namedview107"
     showgrid="false"
     inkscape:zoom="1.4111111"
     inkscape:cx="461.12566"
     inkscape:cy="162.5"
     inkscape:window-x="1680"
     inkscape:window-y="0"
     inkscape:window-maximized="1"
     inkscape:current-layer="svg2" />
  <polygon
     style="fill:#ffffff;stroke:#ffffff"
     id="polygon7"
     points="861,-256 861,5 -4,5 -4,5 -4,-256 "
     transform="translate(4,256)" />
  <g
     class="node"
     id="node1"
     transform="translate(4,256)">
    <title
       id="title10">/var/run/memory/starter/sequence</title>
    <ellipse
       style="fill:none;stroke:#000000"
       sodipodi:ry="18"
       sodipodi:rx="176"
       sodipodi:cy="-162"
       sodipodi:cx="386"
       d="m 562,-162 c 0,9.94113 -78.79788,18 -176,18 -97.20212,0 -176,-8.05887 -176,-18 0,-9.94113 78.79788,-18 176,-18 97.20212,0 176,8.05887 176,18 z"
       id="ellipse12"
       ry="18"
       rx="176"
       cy="-162"
       cx="386" />
    <text
       style="font-size:14px;text-anchor:middle;font-family:'Times Roman,serif'"
       id="text14"
       font-size="14.00"
       y="-157.89999"
       x="386">/var/run/memory/starter/sequence</text>
  </g>
  <g
     class="node"
     id="node3"
     transform="translate(4,256)">
    <title
       id="title17">/usr/apps/org.tizen.pwlock/bin/pwlock</title>
    <ellipse
       style="fill:none;stroke:#000000"
       sodipodi:ry="18"
       sodipodi:rx="191.78799"
       sodipodi:cy="-90"
       sodipodi:cx="488"
       d="m 679.78799,-90 c 0,9.941125 -85.86641,18 -191.78799,18 -105.92158,0 -191.78799,-8.058875 -191.78799,-18 0,-9.941125 85.86641,-18 191.78799,-18 105.92158,0 191.78799,8.058875 191.78799,18 z"
       id="ellipse19"
       ry="18"
       rx="191.78799"
       cy="-90"
       cx="488" />
    <text
       style="font-size:14px;text-anchor:middle;font-family:'Times Roman,serif'"
       id="text21"
       font-size="14.00"
       y="-85.900002"
       x="488">/usr/apps/org.tizen.pwlock/bin/pwlock</text>
  </g>
  <g
     class="edge"
     id="edge2"
     transform="translate(4,256)">
    <title
       id="title24">/var/run/memory/starter/sequence-&gt;/usr/apps/org.tizen.pwlock/bin/pwlock</title>
    <path
       style="fill:none;stroke:#008000"
       inkscape:connector-curvature="0"
       id="path26"
       d="m 411.476,-144.017 c 12.9,9.106 28.736,20.285 42.649,30.105" />
    <polygon
       style="fill:#008000;stroke:#008000"
       id="polygon28"
       points="452.307,-110.911 456.344,-116.629 456.344,-116.629 462.495,-108.003 " />
  </g>
  <g
     class="node"
     id="node7"
     transform="translate(4,256)">
    <title
       id="title31">/var/run/memory/telephony/tapi_state</title>
    <ellipse
       style="fill:none;stroke:#000000"
       sodipodi:ry="18"
       sodipodi:rx="194.067"
       sodipodi:cy="-18"
       sodipodi:cx="488"
       d="M 682.067,-18 C 682.067,-8.0588745 595.18025,0 488,0 380.81975,0 293.933,-8.0588745 293.933,-18 c 0,-9.941125 86.88675,-18 194.067,-18 107.18025,0 194.067,8.058875 194.067,18 z"
       id="ellipse33"
       ry="18"
       rx="194.067"
       cy="-18"
       cx="488" />
    <text
       style="font-size:14px;text-anchor:middle;font-family:'Times Roman,serif'"
       id="text35"
       font-size="14.00"
       y="-13.9"
       x="488">/var/run/memory/telephony/tapi_state</text>
  </g>
  <g
     class="edge"
     id="edge6"
     transform="translate(4,256)">
    <title
       id="title38">/usr/apps/org.tizen.pwlock/bin/pwlock-&gt;/var/run/memory/telephony/tapi_state</title>
    <path
       style="fill:none;stroke:#008000"
       inkscape:connector-curvature="0"
       id="path40"
       d="m 482.048,-71.8314 c -0.751,7.7004 -0.972,16.8571 -0.663,25.4148" />
    <polygon
       style="fill:#008000;stroke:#008000"
       id="polygon42"
       points="477.893,-46.1697 484.879,-46.6161 484.879,-46.6161 482.024,-36.4133 " />
  </g>
  <g
     class="edge"
     id="edge12"
     transform="translate(4,256)">
    <title
       id="title45">/usr/apps/org.tizen.pwlock/bin/pwlock-&gt;/var/run/memory/telephony/tapi_state</title>
    <path
       style="fill:none;stroke:#0000ff"
       inkscape:connector-curvature="0"
       id="path47"
       d="m 493.952,-71.8314 c 0.751,7.7004 0.972,16.8571 0.663,25.4148" />
    <polygon
       style="fill:#0000ff;stroke:#0000ff"
       id="polygon49"
       points="491.121,-46.6161 498.107,-46.1697 498.107,-46.1697 493.976,-36.4133 " />
  </g>
  <g
     class="node"
     id="node4"
     transform="translate(4,256)">
    <title
       id="title52">/usr/bin/starter</title>
    <ellipse
       style="fill:none;stroke:#000000"
       sodipodi:ry="18"
       sodipodi:rx="82.886597"
       sodipodi:cy="-234"
       sodipodi:cx="488"
       d="m 570.8866,-234 c 0,9.94113 -37.1096,18 -82.8866,18 -45.777,0 -82.8866,-8.05887 -82.8866,-18 0,-9.94113 37.1096,-18 82.8866,-18 45.777,0 82.8866,8.05887 82.8866,18 z"
       id="ellipse54"
       ry="18"
       rx="82.886597"
       cy="-234"
       cx="488" />
    <text
       style="font-size:14px;text-anchor:middle;font-family:'Times Roman,serif'"
       id="text56"
       font-size="14.00"
       y="-229.89999"
       x="488">/usr/bin/starter</text>
  </g>
  <g
     class="edge"
     id="edge4"
     transform="translate(4,256)">
    <title
       id="title59">/usr/bin/starter-&gt;/var/run/memory/starter/sequence</title>
    <path
       style="fill:none;stroke:#008000"
       inkscape:connector-curvature="0"
       id="path61"
       d="m 458.265,-217.119 c -14.061,9.225 -30.669,20.809 -44.473,30.974" />
    <polygon
       style="fill:#008000;stroke:#008000"
       id="polygon63"
       points="411.527,-188.822 415.715,-183.213 415.715,-183.213 405.608,-180.034 " />
  </g>
  <g
     class="edge"
     id="edge10"
     transform="translate(4,256)">
    <title
       id="title66">/usr/bin/starter-&gt;/var/run/memory/starter/sequence</title>
    <path
       style="fill:none;stroke:#ff0000"
       inkscape:connector-curvature="0"
       id="path68"
       d="m 468.702,-216.202 c -12.189,9.259 -28.242,20.7 -43.003,30.68" />
    <polygon
       style="fill:#ff0000;stroke:#ff0000"
       id="polygon70"
       points="423.568,-188.308 427.457,-182.487 427.457,-182.487 417.197,-179.843 " />
  </g>
  <g
     class="edge"
     id="edge14"
     transform="translate(4,256)">
    <title
       id="title73">/usr/bin/starter-&gt;/usr/apps/org.tizen.pwlock/bin/pwlock</title>
    <path
       style="fill:none;stroke:#000000"
       inkscape:connector-curvature="0"
       id="path75"
       d="m 528.527,-218.029 c 16.259,8.653 33.293,21.104 42.473,38.029 7.629,14.064 7.629,21.936 0,36 -6.993,12.892 -18.542,23.188 -30.835,31.187" />
    <polygon
       style="fill:#000000;stroke:#000000"
       id="polygon77"
       points="538.339,-115.799 541.953,-109.804 541.953,-109.804 531.582,-107.638 " />
  </g>
  <g
     class="node"
     id="node14"
     transform="translate(4,256)">
    <title
       id="title80">/usr/bin/menu-daemon</title>
    <ellipse
       style="fill:none;stroke:#000000"
       sodipodi:ry="18"
       sodipodi:rx="119.02"
       sodipodi:cy="-162"
       sodipodi:cx="737"
       d="m 856.02,-162 c 0,9.94113 -53.28707,18 -119.02,18 -65.73293,0 -119.02,-8.05887 -119.02,-18 0,-9.94113 53.28707,-18 119.02,-18 65.73293,0 119.02,8.05887 119.02,18 z"
       id="ellipse82"
       ry="18"
       rx="119.02"
       cy="-162"
       cx="737" />
    <text
       style="font-size:14px;text-anchor:middle;font-family:'Times Roman,serif'"
       id="text84"
       font-size="14.00"
       y="-157.89999"
       x="737">/usr/bin/menu-daemon</text>
  </g>
  <g
     class="edge"
     id="edge16"
     transform="translate(4,256)">
    <title
       id="title87">/usr/bin/starter-&gt;/usr/bin/menu-daemon</title>
    <path
       style="fill:none;stroke:#000000"
       inkscape:connector-curvature="0"
       id="path89"
       d="m 538.089,-219.516 c 38.523,11.139 92.058,26.619 133.886,38.713" />
    <polygon
       style="fill:#000000;stroke:#000000"
       id="polygon91"
       points="671.216,-177.378 673.161,-184.103 673.161,-184.103 681.795,-177.963 " />
  </g>
  <g
     class="node"
     id="node8"
     transform="translate(4,256)">
    <title
       id="title94">/usr/bin/telephony-daemon</title>
    <ellipse
       style="fill:none;stroke:#000000"
       sodipodi:ry="18"
       sodipodi:rx="139.17101"
       sodipodi:cy="-90"
       sodipodi:cx="139"
       d="m 278.17101,-90 c 0,9.941125 -62.30899,18 -139.17101,18 -76.862024,0 -139.17100525,-8.058875 -139.17100525,-18 0,-9.941125 62.30898125,-18 139.17100525,-18 76.86202,0 139.17101,8.058875 139.17101,18 z"
       id="ellipse96"
       ry="18"
       rx="139.17101"
       cy="-90"
       cx="139" />
    <text
       style="font-size:14px;text-anchor:middle;font-family:'Times Roman,serif'"
       id="text98"
       font-size="14.00"
       y="-85.900002"
       x="139">/usr/bin/telephony-daemon</text>
  </g>
  <g
     class="edge"
     id="edge8"
     transform="translate(4,256)">
    <title
       id="title101">/usr/bin/telephony-daemon-&gt;/var/run/memory/telephony/tapi_state</title>
    <path
       style="fill:none;stroke:#ff0000"
       inkscape:connector-curvature="0"
       id="path103"
       d="m 213.014,-74.7307 c 54.191,11.1798 127.994,26.4057 185.499,38.2691" />
    <polygon
       style="fill:#ff0000;stroke:#ff0000"
       id="polygon105"
       points="397.821,-33.0306 399.235,-39.8863 399.235,-39.8863 408.322,-34.4379 " />
  </g>
  <rect
     style="fill:none;fill-opacity:1;stroke:#ffffff;stroke-width:9.39999961999999911;stroke-linejoin:round;stroke-miterlimit:4;stroke-opacity:1;stroke-dasharray:none"
     id="rect3145"
     width="1089"
     height="335"
     x="-3"
     y="-4"
     transform="scale(0.8,0.8)" />
</svg>
